<?xml version="1.0" encoding="UTF-8" standalone="no"?><svg xmlns="http://www.w3.org/2000/svg" xmlns:xlink="http://www.w3.org/1999/xlink" contentScriptType="application/ecmascript" contentStyleType="text/css" height="307px" preserveAspectRatio="none" style="width:315px;height:307px;" version="1.1" viewBox="0 0 315 307" width="315px" zoomAndPan="magnify"><defs><filter height="300%" id="f6prp2d" width="300%" x="-1" y="-1"><feGaussianBlur result="blurOut" stdDeviation="2.0"/><feColorMatrix in="blurOut" result="blurOut2" type="matrix" values="0 0 0 0 0 0 0 0 0 0 0 0 0 0 0 0 0 0 .4 0"/><feOffset dx="4.0" dy="4.0" in="blurOut2" result="blurOut3"/><feBlend in="SourceGraphic" in2="blurOut3" mode="normal"/></filter></defs><g><line style="stroke: #A80036; stroke-width: 1.0; stroke-dasharray: 5.0,5.0;" x1="28" x2="28" y1="86.2969" y2="222.8281"/><line style="stroke: #A80036; stroke-width: 1.0; stroke-dasharray: 5.0,5.0;" x1="133" x2="133" y1="86.2969" y2="222.8281"/><line style="stroke: #A80036; stroke-width: 1.0; stroke-dasharray: 5.0,5.0;" x1="188" x2="188" y1="86.2969" y2="222.8281"/><line style="stroke: #A80036; stroke-width: 1.0; stroke-dasharray: 5.0,5.0;" x1="239" x2="239" y1="86.2969" y2="222.8281"/><line style="stroke: #A80036; stroke-width: 1.0; stroke-dasharray: 5.0,5.0;" x1="290" x2="290" y1="86.2969" y2="222.8281"/><text fill="#000000" font-family="sans-serif" font-size="14" lengthAdjust="spacingAndGlyphs" textLength="35" x="8" y="82.9951">Foo1</text><ellipse cx="28.5" cy="13" fill="#FEFECE" filter="url(#f6prp2d)" rx="8" ry="8" style="stroke: #A80036; stroke-width: 2.0;"/><path d="M28.5,21 L28.5,48 M15.5,29 L41.5,29 M28.5,48 L15.5,63 M28.5,48 L41.5,63 " fill="#FEFECE" filter="url(#f6prp2d)" style="stroke: #A80036; stroke-width: 2.0;"/><text fill="#000000" font-family="sans-serif" font-size="14" lengthAdjust="spacingAndGlyphs" textLength="35" x="8" y="234.8232">Foo1</text><ellipse cx="28.5" cy="248.125" fill="#FEFECE" filter="url(#f6prp2d)" rx="8" ry="8" style="stroke: #A80036; stroke-width: 2.0;"/><path d="M28.5,256.125 L28.5,283.125 M15.5,264.125 L41.5,264.125 M28.5,283.125 L15.5,298.125 M28.5,283.125 L41.5,298.125 " fill="#FEFECE" filter="url(#f6prp2d)" style="stroke: #A80036; stroke-width: 2.0;"/><text fill="#000000" font-family="sans-serif" font-size="14" lengthAdjust="spacingAndGlyphs" textLength="35" x="113" y="82.9951">Foo2</text><path d="M113,42 L113,66 M113,54 L130,54 " fill="#FEFECE" filter="url(#f6prp2d)" style="stroke: #A80036; stroke-width: 2.0;"/><ellipse cx="142" cy="54" fill="#FEFECE" filter="url(#f6prp2d)" rx="12" ry="12" style="stroke: #A80036; stroke-width: 2.0;"/><text fill="#000000" font-family="sans-serif" font-size="14" lengthAdjust="spacingAndGlyphs" textLength="35" x="113" y="234.8232">Foo2</text><path d="M113,242.125 L113,266.125 M113,254.125 L130,254.125 " fill="#FEFECE" filter="url(#f6prp2d)" style="stroke: #A80036; stroke-width: 2.0;"/><ellipse cx="142" cy="254.125" fill="#FEFECE" filter="url(#f6prp2d)" rx="12" ry="12" style="stroke: #A80036; stroke-width: 2.0;"/><text fill="#000000" font-family="sans-serif" font-size="14" lengthAdjust="spacingAndGlyphs" textLength="35" x="168" y="82.9951">Foo3</text><ellipse cx="188.5" cy="54" fill="#FEFECE" filter="url(#f6prp2d)" rx="12" ry="12" style="stroke: #A80036; stroke-width: 2.0;"/><polygon fill="#A80036" points="184.5,42,190.5,37,188.5,42,190.5,47,184.5,42" style="stroke: #A80036; stroke-width: 1.0;"/><text fill="#000000" font-family="sans-serif" font-size="14" lengthAdjust="spacingAndGlyphs" textLength="35" x="168" y="234.8232">Foo3</text><ellipse cx="188.5" cy="254.125" fill="#FEFECE" filter="url(#f6prp2d)" rx="12" ry="12" style="stroke: #A80036; stroke-width: 2.0;"/><polygon fill="#A80036" points="184.5,242.125,190.5,237.125,188.5,242.125,190.5,247.125,184.5,242.125" style="stroke: #A80036; stroke-width: 1.0;"/><text fill="#000000" font-family="sans-serif" font-size="14" lengthAdjust="spacingAndGlyphs" textLength="35" x="219" y="82.9951">Foo4</text><ellipse cx="239.5" cy="54" fill="#FEFECE" filter="url(#f6prp2d)" rx="12" ry="12" style="stroke: #A80036; stroke-width: 2.0;"/><line style="stroke: #A80036; stroke-width: 2.0;" x1="227.5" x2="251.5" y1="68" y2="68"/><text fill="#000000" font-family="sans-serif" font-size="14" lengthAdjust="spacingAndGlyphs" textLength="35" x="219" y="234.8232">Foo4</text><ellipse cx="239.5" cy="254.125" fill="#FEFECE" filter="url(#f6prp2d)" rx="12" ry="12" style="stroke: #A80036; stroke-width: 2.0;"/><line style="stroke: #A80036; stroke-width: 2.0;" x1="227.5" x2="251.5" y1="268.125" y2="268.125"/><text fill="#000000" font-family="sans-serif" font-size="14" lengthAdjust="spacingAndGlyphs" textLength="35" x="270" y="82.9951">Foo5</text><path d="M272.5,34 C272.5,24 290.5,24 290.5,24 C290.5,24 308.5,24 308.5,34 L308.5,60 C308.5,70 290.5,70 290.5,70 C290.5,70 272.5,70 272.5,60 L272.5,34 " fill="#FEFECE" filter="url(#f6prp2d)" style="stroke: #000000; stroke-width: 1.5;"/><path d="M272.5,34 C272.5,44 290.5,44 290.5,44 C290.5,44 308.5,44 308.5,34 " fill="none" style="stroke: #000000; stroke-width: 1.5;"/><text fill="#000000" font-family="sans-serif" font-size="14" lengthAdjust="spacingAndGlyphs" textLength="35" x="270" y="234.8232">Foo5</text><path d="M272.5,248.125 C272.5,238.125 290.5,238.125 290.5,238.125 C290.5,238.125 308.5,238.125 308.5,248.125 L308.5,274.125 C308.5,284.125 290.5,284.125 290.5,284.125 C290.5,284.125 272.5,284.125 272.5,274.125 L272.5,248.125 " fill="#FEFECE" filter="url(#f6prp2d)" style="stroke: #000000; stroke-width: 1.5;"/><path d="M272.5,248.125 C272.5,258.125 290.5,258.125 290.5,258.125 C290.5,258.125 308.5,258.125 308.5,248.125 " fill="none" style="stroke: #000000; stroke-width: 1.5;"/><polygon fill="#A80036" points="121.5,113.2969,131.5,117.2969,121.5,121.2969,125.5,117.2969" style="stroke: #A80036; stroke-width: 1.0;"/><line style="stroke: #A80036; stroke-width: 1.0;" x1="28.5" x2="127.5" y1="117.2969" y2="117.2969"/><text fill="#000000" font-family="sans-serif" font-size="13" lengthAdjust="spacingAndGlyphs" textLength="81" x="35.5" y="112.3638">To boundary</text><polygon fill="#A80036" points="176.5,142.4297,186.5,146.4297,176.5,150.4297,180.5,146.4297" style="stroke: #A80036; stroke-width: 1.0;"/><line style="stroke: #A80036; stroke-width: 1.0;" x1="28.5" x2="182.5" y1="146.4297" y2="146.4297"/><text fill="#000000" font-family="sans-serif" font-size="13" lengthAdjust="spacingAndGlyphs" textLength="65" x="35.5" y="141.4966">To control</text><polygon fill="#A80036" points="227.5,171.5625,237.5,175.5625,227.5,179.5625,231.5,175.5625" style="stroke: #A80036; stroke-width: 1.0;"/><line style="stroke: #A80036; stroke-width: 1.0;" x1="28.5" x2="233.5" y1="175.5625" y2="175.5625"/><text fill="#000000" font-family="sans-serif" font-size="13" lengthAdjust="spacingAndGlyphs" textLength="58" x="35.5" y="170.6294">To entity</text><polygon fill="#A80036" points="278.5,200.6953,288.5,204.6953,278.5,208.6953,282.5,204.6953" style="stroke: #A80036; stroke-width: 1.0;"/><line style="stroke: #A80036; stroke-width: 1.0;" x1="28.5" x2="284.5" y1="204.6953" y2="204.6953"/><text fill="#000000" font-family="sans-serif" font-size="13" lengthAdjust="spacingAndGlyphs" textLength="80" x="35.5" y="199.7622">To database</text></g></svg>